<svg width="642" height="679" viewBox="0 0 642 679" fill="none" xmlns="http://www.w3.org/2000/svg">
<g clip-path="url(#clip0_121_665)">
<path d="M500.374 146.814L169.062 105.412C168.17 105.3 167.271 105.243 166.371 105.241C165.484 105.24 164.598 105.294 163.718 105.405C162.84 105.516 161.97 105.683 161.114 105.905C160.248 106.131 159.398 106.413 158.569 106.747C157.757 107.074 156.966 107.448 156.2 107.869C155.424 108.293 154.674 108.762 153.954 109.272C153.217 109.796 152.512 110.361 151.841 110.963C151.148 111.583 150.489 112.239 149.868 112.928C149.23 113.637 148.63 114.378 148.07 115.148C147.504 115.927 146.973 116.737 146.477 117.579C145.98 118.424 145.52 119.302 145.095 120.214C144.67 121.126 144.283 122.069 143.933 123.043C143.57 124.05 143.252 125.079 142.979 126.13C142.706 127.182 142.478 128.251 142.295 129.339C142.116 130.426 141.978 131.531 141.883 132.653C141.787 133.776 141.74 134.912 141.74 136.062C141.743 137.21 141.791 138.355 141.883 139.497C141.974 140.638 142.112 141.77 142.295 142.892C142.48 144.02 142.709 145.136 142.982 146.24C143.255 147.345 143.573 148.437 143.936 149.517C144.286 150.56 144.673 151.579 145.098 152.574C145.523 153.571 145.983 154.54 146.479 155.482C146.976 156.424 147.507 157.339 148.073 158.226C148.638 159.118 149.237 159.976 149.871 160.8C150.505 161.624 151.162 162.41 151.844 163.158C152.525 163.902 153.229 164.604 153.957 165.263C154.684 165.923 155.432 166.539 156.203 167.111C156.964 167.678 157.755 168.206 158.572 168.694C159.394 169.186 160.244 169.632 161.117 170.031C161.964 170.418 162.834 170.756 163.721 171.043C164.59 171.324 165.476 171.553 166.374 171.729C167.263 171.903 168.161 172.022 169.065 172.087L500.377 195.841C501.341 195.91 502.31 195.815 503.241 195.56C503.714 195.431 504.176 195.264 504.622 195.061C505.087 194.849 505.536 194.602 505.963 194.324C506.397 194.042 506.811 193.733 507.203 193.398C507.615 193.047 508.005 192.672 508.371 192.275C508.759 191.857 509.123 191.418 509.464 190.962C509.816 190.492 510.154 189.992 510.478 189.461C510.803 188.929 511.11 188.375 511.399 187.798C511.688 187.221 511.959 186.621 512.211 185.999C512.464 185.378 512.697 184.735 512.912 184.071C513.127 183.407 513.323 182.723 513.499 182.02C513.685 181.292 513.846 180.551 513.98 179.797C514.115 179.043 514.23 178.278 514.325 177.502C514.418 176.725 514.487 175.938 514.533 175.141C514.578 174.344 514.601 173.538 514.601 172.724C514.599 171.91 514.576 171.1 514.533 170.293C514.49 169.487 514.421 168.687 514.325 167.893C514.233 167.098 514.118 166.311 513.98 165.53C513.843 164.749 513.682 163.976 513.499 163.212C513.323 162.473 513.127 161.75 512.912 161.045C512.699 160.349 512.465 159.663 512.211 158.988C511.956 158.313 511.685 157.658 511.399 157.024C511.111 156.39 510.804 155.776 510.478 155.18C510.153 154.584 509.815 154.017 509.464 153.479C509.112 152.941 508.748 152.431 508.371 151.95C507.994 151.468 507.605 151.017 507.203 150.597C506.811 150.186 506.398 149.795 505.963 149.427C505.538 149.066 505.09 148.732 504.622 148.426C504.181 148.138 503.719 147.88 503.241 147.655C502.783 147.439 502.309 147.259 501.823 147.116C501.35 146.977 500.865 146.876 500.375 146.814" fill="#6C63FF"/>
<path d="M500.374 240.191L169.062 232.413C167.265 232.369 165.47 232.549 163.718 232.948C162.835 233.149 161.965 233.405 161.114 233.712C160.244 234.027 159.394 234.392 158.569 234.807C157.754 235.216 156.963 235.67 156.2 236.165C155.422 236.67 154.672 237.216 153.954 237.8C153.217 238.399 152.511 239.035 151.841 239.705C151.158 240.386 150.501 241.11 149.868 241.877C149.235 242.646 148.636 243.448 148.07 244.281C147.504 245.114 146.973 245.979 146.477 246.874C145.98 247.769 145.52 248.694 145.095 249.649C144.67 250.605 144.283 251.587 143.933 252.596C143.57 253.641 143.252 254.703 142.979 255.781C142.706 256.86 142.478 257.952 142.295 259.059C142.116 260.166 141.978 261.285 141.883 262.417C141.787 263.549 141.74 264.69 141.74 265.839C141.743 266.989 141.791 268.129 141.883 269.26C141.974 270.391 142.112 271.509 142.295 272.615C142.48 273.715 142.709 274.804 142.982 275.88C143.255 276.957 143.573 278.017 143.936 279.06C144.286 280.072 144.673 281.054 145.098 282.007C145.523 282.959 145.983 283.881 146.479 284.774C146.976 285.666 147.507 286.527 148.073 287.357C148.638 288.184 149.237 288.979 149.871 289.742C150.505 290.506 151.162 291.225 151.844 291.902C152.514 292.568 153.219 293.2 153.957 293.795C154.675 294.374 155.425 294.915 156.203 295.415C156.966 295.906 157.757 296.354 158.572 296.758C159.397 297.168 160.247 297.528 161.117 297.837C161.968 298.139 162.838 298.389 163.721 298.585C164.595 298.78 165.481 298.921 166.374 299.006C167.268 299.09 168.167 299.118 169.065 299.092L500.374 289.212C500.861 289.197 501.346 289.142 501.823 289.048C502.306 288.952 502.78 288.817 503.24 288.645C503.717 288.466 504.179 288.252 504.622 288.005C505.089 287.745 505.537 287.453 505.963 287.132C506.397 286.806 506.811 286.454 507.203 286.08C507.614 285.687 508.004 285.273 508.371 284.84C508.747 284.398 509.111 283.923 509.463 283.415C509.816 282.907 510.154 282.373 510.478 281.812C510.803 281.247 511.11 280.661 511.399 280.055C511.688 279.449 511.959 278.822 512.211 278.175C512.463 277.517 512.697 276.848 512.912 276.167C513.127 275.486 513.322 274.784 513.499 274.062C513.685 273.323 513.845 272.569 513.98 271.801C514.115 271.033 514.23 270.256 514.325 269.471C514.418 268.682 514.487 267.887 514.532 267.085C514.578 266.284 514.601 265.475 514.601 264.661C514.598 263.853 514.575 263.047 514.532 262.242C514.49 261.436 514.42 260.641 514.325 259.856C514.232 259.069 514.117 258.293 513.98 257.528C513.843 256.764 513.682 256.008 513.499 255.259C513.321 254.537 513.125 253.834 512.911 253.149C512.696 252.464 512.462 251.799 512.211 251.154C511.96 250.508 511.689 249.883 511.4 249.278C511.111 248.672 510.804 248.089 510.48 247.528C510.154 246.966 509.816 246.433 509.465 245.928C509.114 245.424 508.75 244.951 508.373 244.51C508.006 244.079 507.616 243.667 507.204 243.276C506.813 242.905 506.399 242.556 505.965 242.232C505.538 241.914 505.09 241.626 504.623 241.368C504.179 241.124 503.717 240.914 503.24 240.739C502.78 240.57 502.306 240.438 501.823 240.345C501.346 240.254 500.861 240.202 500.374 240.191" fill="#E4E4E4"/>
<path d="M500.374 327.73L169.062 351.48C168.159 351.545 167.26 351.665 166.371 351.838C165.473 352.014 164.588 352.243 163.718 352.524C162.831 352.811 161.961 353.149 161.114 353.536C160.241 353.935 159.391 354.381 158.569 354.873C157.752 355.361 156.962 355.889 156.2 356.456C155.429 357.033 154.68 357.649 153.954 358.304C153.227 358.962 152.523 359.663 151.841 360.409C151.158 361.154 150.501 361.94 149.868 362.767C149.235 363.597 148.636 364.456 148.07 365.344C147.504 366.231 146.973 367.146 146.477 368.088C145.98 369.031 145.52 370 145.095 370.996C144.67 371.991 144.283 373.01 143.933 374.053C143.57 375.131 143.252 376.223 142.979 377.329C142.706 378.436 142.478 379.551 142.295 380.673C142.116 381.798 141.978 382.93 141.883 384.07C141.787 385.211 141.74 386.356 141.74 387.505C141.743 388.655 141.791 389.791 141.883 390.914C141.974 392.036 142.112 393.141 142.295 394.229C142.48 395.32 142.709 396.39 142.982 397.44C143.255 398.489 143.573 399.518 143.936 400.527C144.286 401.501 144.673 402.444 145.098 403.355C145.523 404.268 145.983 405.146 146.479 405.991C146.976 406.835 147.507 407.646 148.073 408.422C148.633 409.192 149.233 409.933 149.871 410.642C150.492 411.331 151.151 411.987 151.844 412.607C152.515 413.209 153.22 413.773 153.957 414.297C154.676 414.808 155.426 415.277 156.203 415.701C156.968 416.121 157.76 416.496 158.572 416.823C159.401 417.157 160.251 417.438 161.117 417.665C161.973 417.887 162.843 418.054 163.721 418.164C164.601 418.275 165.487 418.33 166.374 418.329C167.274 418.327 168.173 418.27 169.065 418.157L500.375 376.765C500.865 376.704 501.35 376.603 501.823 376.464C502.309 376.32 502.783 376.14 503.241 375.925C503.719 375.7 504.181 375.442 504.622 375.153C505.09 374.847 505.538 374.513 505.963 374.153C506.398 373.785 506.811 373.394 507.203 372.983C507.6 372.562 507.989 372.111 508.371 371.63C508.747 371.149 509.111 370.639 509.464 370.1C509.816 369.562 510.154 368.995 510.478 368.4C510.803 367.809 511.11 367.194 511.399 366.556C511.688 365.918 511.959 365.263 512.211 364.592C512.464 363.917 512.697 363.227 512.912 362.522C513.127 361.817 513.323 361.094 513.499 360.355C513.685 359.59 513.846 358.817 513.98 358.036C514.115 357.255 514.23 356.467 514.325 355.673C514.418 354.879 514.487 354.079 514.533 353.272C514.578 352.466 514.601 351.655 514.601 350.84C514.598 350.03 514.574 349.227 514.531 348.43C514.488 347.633 514.419 346.846 514.324 346.07C514.232 345.291 514.117 344.524 513.98 343.77C513.843 343.016 513.682 342.275 513.499 341.547C513.323 340.843 513.127 340.159 512.912 339.496C512.7 338.833 512.467 338.19 512.212 337.568C511.957 336.946 511.687 336.346 511.4 335.769C511.109 335.197 510.801 334.644 510.476 334.11C510.15 333.577 509.812 333.077 509.461 332.609C509.12 332.153 508.756 331.714 508.368 331.296C508.002 330.899 507.612 330.525 507.2 330.173C506.808 329.838 506.394 329.529 505.96 329.247C505.533 328.969 505.084 328.723 504.619 328.51C504.173 328.307 503.711 328.14 503.238 328.011C502.307 327.756 501.338 327.661 500.374 327.73" fill="#E4E4E4"/>
<path d="M36.7503 229.065C35.6456 229.145 34.5463 229.286 33.4577 229.486C32.362 229.687 31.2786 229.948 30.2123 230.266C29.1299 230.59 28.0661 230.972 27.0257 231.408C25.9609 231.855 24.9206 232.356 23.9092 232.91C22.9195 233.455 21.9522 234.048 21.0074 234.689C20.0626 235.33 19.1449 236.018 18.2545 236.754C17.365 237.489 16.5018 238.272 15.6648 239.103C14.8278 239.935 14.0214 240.812 13.2455 241.734C12.4696 242.657 11.7342 243.612 11.0394 244.601C10.3446 245.59 9.69278 246.608 9.08391 247.657C8.48074 248.708 7.91668 249.787 7.39178 250.894C6.86687 252.002 6.3897 253.135 5.96023 254.294C5.51264 255.496 5.12086 256.711 4.78492 257.938C4.44897 259.165 4.16885 260.403 3.94458 261.651C3.71935 262.899 3.55044 264.155 3.43782 265.42C3.32521 266.684 3.26892 267.954 3.26895 269.229C3.26895 270.504 3.32524 271.763 3.43782 273.005C3.55041 274.248 3.71932 275.471 3.94458 276.675C4.16886 277.878 4.44897 279.061 4.78492 280.222C5.12086 281.383 5.51121 282.52 5.95595 283.633C6.38923 284.708 6.8664 285.747 7.38749 286.752C7.90257 287.747 8.46826 288.715 9.08246 289.654C9.68704 290.575 10.3398 291.465 11.038 292.32C11.7296 293.17 12.4664 293.983 13.2455 294.757C14.0116 295.518 14.8193 296.237 15.6648 296.912C16.4928 297.573 17.3578 298.189 18.2559 298.755C20.0283 299.873 21.9256 300.788 23.9106 301.483C25.9455 302.195 28.0602 302.666 30.2094 302.886C31.2875 302.995 32.3712 303.042 33.4548 303.026C34.5559 303.011 35.6552 302.935 36.7474 302.797C37.8495 302.66 38.9429 302.462 40.0228 302.207C41.1059 301.95 42.174 301.635 43.2223 301.265C44.2826 300.89 45.3219 300.461 46.336 299.978C47.3693 299.487 48.3765 298.945 49.3537 298.354C50.3053 297.772 51.232 297.148 52.1338 296.482C53.0357 295.816 53.9094 295.106 54.755 294.352C55.6006 293.598 56.417 292.803 57.2044 291.966C57.9918 291.13 58.7486 290.253 59.4749 289.334C60.2059 288.416 60.894 287.471 61.5392 286.498C62.1844 285.525 62.7885 284.527 63.3516 283.502C63.9147 282.478 64.4358 281.43 64.9148 280.358C65.3939 279.286 65.8306 278.191 66.2247 277.074C66.6332 275.918 66.9906 274.752 67.297 273.576C67.6033 272.401 67.8591 271.216 68.0643 270.024C68.2685 268.83 68.4222 267.63 68.5253 266.424C68.6283 265.219 68.6799 264.008 68.6799 262.792C68.6789 261.576 68.6274 260.374 68.5253 259.188C68.4231 258.002 68.2695 256.833 68.0643 255.68C67.8601 254.53 67.6043 253.396 67.297 252.279C66.9897 251.162 66.6323 250.066 66.2247 248.991C65.8287 247.951 65.392 246.942 64.9148 245.965C64.431 244.99 63.9075 244.044 63.3444 243.128C62.2297 241.316 60.9335 239.618 59.4749 238.058C58.7591 237.291 58.0032 236.561 57.2102 235.87C56.4292 235.193 55.6116 234.557 54.7608 233.966C53.9181 233.381 53.043 232.842 52.1396 232.351C51.2368 231.861 50.3067 231.421 49.3538 231.032C47.3862 230.229 45.3286 229.657 43.2238 229.327C42.1645 229.162 41.0961 229.057 40.0243 229.015C38.9323 228.971 37.8388 228.989 36.7489 229.068" fill="#E4E4E4"/>
<path d="M36.7503 360.963C35.6456 361.043 34.5463 361.183 33.4577 361.384C32.362 361.585 31.2786 361.845 30.2123 362.164C29.1299 362.488 28.0661 362.869 27.0257 363.306C25.9609 363.753 24.9206 364.254 23.9092 364.808C22.9195 365.353 21.9522 365.946 21.0074 366.587C20.0626 367.228 19.1449 367.916 18.2545 368.652C17.365 369.387 16.5018 370.17 15.6648 371.001C14.8278 371.833 14.0214 372.71 13.2455 373.632C12.4696 374.554 11.7342 375.51 11.0394 376.499C10.3446 377.487 9.69278 378.506 9.08391 379.555C8.48074 380.605 7.91668 381.684 7.39178 382.792C6.86687 383.899 6.3897 385.033 5.96023 386.192C5.51264 387.394 5.12086 388.608 4.78492 389.836C4.44897 391.063 4.16885 392.301 3.94458 393.549C3.71935 394.796 3.55044 396.053 3.43782 397.317C3.32521 398.582 3.26892 399.852 3.26895 401.127C3.26895 402.402 3.32524 403.661 3.43782 404.903C3.55041 406.145 3.71932 407.368 3.94458 408.572C4.16886 409.776 4.44897 410.959 4.78492 412.119C5.12086 413.28 5.51121 414.417 5.95595 415.531C6.38923 416.605 6.8664 417.645 7.38749 418.65C7.90257 419.644 8.46826 420.613 9.08246 421.552C9.68704 422.473 10.3398 423.362 11.038 424.218C11.7296 425.067 12.4664 425.881 13.2455 426.655C14.0116 427.416 14.8193 428.135 15.6648 428.81C16.4928 429.471 17.3578 430.086 18.2559 430.653C20.0283 431.771 21.9256 432.686 23.9106 433.38C25.9455 434.093 28.0602 434.564 30.2094 434.783C31.2875 434.892 32.3712 434.939 33.4548 434.924C34.5559 434.909 35.6552 434.832 36.7474 434.695C37.8495 434.557 38.9429 434.36 40.0228 434.104C41.1059 433.848 42.174 433.533 43.2223 433.163C44.2826 432.788 45.3219 432.358 46.336 431.876C47.3693 431.385 48.3765 430.842 49.3537 430.251C50.3053 429.669 51.232 429.045 52.1338 428.379C53.0357 427.713 53.9094 427.003 54.755 426.249C55.6006 425.495 56.417 424.7 57.2044 423.864C57.9918 423.028 58.7486 422.15 59.4749 421.232C60.2059 420.314 60.894 419.369 61.5392 418.396C62.1844 417.423 62.7885 416.424 63.3516 415.4C63.9147 414.376 64.4358 413.328 64.9148 412.256C65.3939 411.184 65.8306 410.089 66.2247 408.972C66.6332 407.816 66.9906 406.65 67.297 405.474C67.6033 404.298 67.8591 403.114 68.0643 401.921C68.2685 400.728 68.4222 399.528 68.5253 398.322C68.6283 397.116 68.6799 395.905 68.6799 394.689C68.6789 393.473 68.6274 392.272 68.5253 391.086C68.4231 389.9 68.2695 388.731 68.0643 387.578C67.8601 386.428 67.6043 385.294 67.297 384.177C66.9897 383.06 66.6323 381.964 66.2247 380.889C65.8287 379.849 65.392 378.84 64.9148 377.863C64.431 376.888 63.9075 375.942 63.3444 375.025C62.2297 373.214 60.9335 371.515 59.4749 369.956C58.7591 369.189 58.0032 368.458 57.2102 367.768C56.4292 367.091 55.6116 366.455 54.7608 365.864C53.9181 365.279 53.043 364.74 52.1396 364.249C51.2368 363.759 50.3067 363.319 49.3538 362.93C47.3862 362.127 45.3286 361.555 43.2238 361.225C42.1645 361.06 41.0961 360.955 40.0243 360.912C38.9323 360.869 37.8388 360.887 36.7489 360.966" fill="#E4E4E4"/>
<path d="M36.756 86.1777C35.6573 86.1515 34.558 86.1866 33.4634 86.2829C32.3733 86.3789 31.2898 86.5363 30.2181 86.7544C29.1404 86.9751 28.0764 87.2562 27.0314 87.5963C25.9704 87.9406 24.9299 88.343 23.9149 88.8016C22.9214 89.2502 21.9528 89.7499 21.0132 90.2988C20.0642 90.8531 19.1453 91.4553 18.2603 92.1032C17.3609 92.7615 16.4961 93.464 15.6691 94.208C14.8283 94.9647 14.0205 95.7669 13.2455 96.6144C12.4696 97.4628 11.7342 98.3487 11.0394 99.272C10.3446 100.195 9.69281 101.152 9.08394 102.143C8.4779 103.147 7.91242 104.175 7.38752 105.228C6.86263 106.282 6.38546 107.37 5.95598 108.492C5.51124 109.649 5.12089 110.826 4.78494 112.021C4.449 113.217 4.16888 114.428 3.94461 115.654C3.71938 116.884 3.55047 118.124 3.43785 119.375C3.32524 120.626 3.26895 121.889 3.26898 123.164C3.26898 124.437 3.32527 125.7 3.43785 126.952C3.55043 128.205 3.71934 129.444 3.94461 130.669C4.16889 131.895 4.449 133.104 4.78494 134.296C5.12088 135.489 5.51124 136.663 5.95598 137.818C6.38925 138.934 6.86642 140.019 7.38752 141.074C7.91244 142.124 8.4793 143.143 9.08815 144.131C9.69699 145.119 10.3489 146.072 11.0437 146.99C11.7375 147.91 12.4729 148.791 13.2497 149.633C14.0266 150.475 14.8331 151.27 15.6691 152.018C16.4917 152.76 17.3522 153.459 18.2473 154.115C19.1325 154.757 20.0514 155.353 21.0002 155.901C21.94 156.444 22.9087 156.938 23.902 157.38C24.9173 157.832 25.9578 158.228 27.0185 158.566C29.1058 159.228 31.2641 159.651 33.4505 159.828C35.6398 160.006 37.8427 159.941 40.0171 159.633C41.095 159.481 42.1633 159.268 43.2166 158.996C44.2726 158.724 45.3121 158.393 46.3303 158.006C47.3603 157.614 48.3677 157.168 49.348 156.669C50.3039 156.182 51.2337 155.648 52.1338 155.068C53.0391 154.484 53.914 153.856 54.755 153.186C55.6006 152.512 56.417 151.795 57.2044 151.033C57.9918 150.272 58.7486 149.467 59.4749 148.617C60.2059 147.768 60.894 146.888 61.5392 145.976C62.1843 145.065 62.7885 144.124 63.3516 143.153C63.9166 142.182 64.4377 141.184 64.9148 140.157C65.392 139.131 65.8287 138.08 66.2247 137.005C66.6332 135.888 66.9906 134.756 67.297 133.609C67.6033 132.462 67.8591 131.302 68.0643 130.129C68.2685 128.951 68.4222 127.764 68.5252 126.568C68.6283 125.371 68.6799 124.165 68.6799 122.949C68.6789 121.734 68.6274 120.528 68.5252 119.332C68.4231 118.135 68.2695 116.951 68.0643 115.78C67.86 114.608 67.6043 113.449 67.297 112.303C66.9897 111.157 66.6323 110.027 66.2247 108.913C65.8287 107.836 65.392 106.786 64.9148 105.763C64.4377 104.74 63.9142 103.743 63.3444 102.773C62.7814 101.811 62.1772 100.876 61.532 99.9665C60.8868 99.0573 60.2011 98.1817 59.4749 97.3398C58.7534 96.4988 57.9985 95.6995 57.2101 94.9418C56.4218 94.1841 55.6053 93.4717 54.7607 92.8047C53.9202 92.1389 53.0458 91.5151 52.141 90.9357C51.2408 90.3611 50.3109 89.8323 49.3551 89.3516C48.3747 88.858 47.3672 88.4177 46.3374 88.0326C45.319 87.6518 44.2795 87.3276 43.2238 87.0616C42.1701 86.7964 41.1018 86.5902 40.0242 86.4442C38.9383 86.2975 37.8447 86.2113 36.7488 86.186L36.756 86.1777ZM36.7488 82.6753C41.5578 82.8044 46.2743 84.0009 50.5433 86.1748C54.7857 88.3491 58.546 91.3266 61.6065 94.9348C64.8056 98.6951 67.2971 102.983 68.9647 107.598C72.5359 117.532 72.5359 128.364 68.9647 138.298C67.2954 142.927 64.8044 147.23 61.6065 151.008C58.5455 154.634 54.7857 157.632 50.5419 159.833C46.2785 162.033 41.5627 163.259 36.7474 163.421C31.9024 163.576 27.086 162.635 22.6723 160.67C18.2165 158.67 14.2303 155.789 10.9635 152.208C7.49449 148.416 4.77942 144.021 2.95824 139.251C-0.98612 128.866 -0.98612 117.437 2.95824 107.053C4.78121 102.268 7.49575 97.8572 10.9635 94.0452C14.2293 90.4442 18.2145 87.5386 22.6723 85.5083C27.0825 83.5158 31.9014 82.5445 36.756 82.6697L36.7488 82.6753Z" fill="#6C63FF"/>
<path d="M36.7532 132.972L25.4768 109.946L28.1538 108.237L37.4417 127.153L76.4403 82.2236L78.801 84.689L36.7532 132.972Z" fill="#6C63FF"/>
</g>
<defs>
<clipPath id="clip0_121_665">
<rect width="665" height="679" fill="white"/>
</clipPath>
</defs>
</svg>
